<svg viewBox="0 0 360 234" role="img" aria-label="Anonymous access outcomes across the MCP registry" preserveAspectRatio="xMinYMin meet"><title>Anonymous access outcomes across the MCP registry</title><desc>One hundred marks represent the 11,121 remote endpoints. Scroll steps highlight endpoints that did not answer, require authentication, advertise authentication, or are simply open.</desc><g class="endpoint-field endpoint-field-mobile"><circle class="endpoint endpoint-broken" cx="78" cy="12" r="7"/><circle class="endpoint endpoint-broken" cx="101" cy="12" r="7"/><circle class="endpoint endpoint-broken" cx="124" cy="12" r="7"/><circle class="endpoint endpoint-broken" cx="147" cy="12" r="7"/><circle class="endpoint endpoint-broken" cx="170" cy="12" r="7"/><circle class="endpoint endpoint-broken" cx="193" cy="12" r="7"/><circle class="endpoint endpoint-broken" cx="216" cy="12" r="7"/><circle class="endpoint endpoint-broken" cx="239" cy="12" r="7"/><circle class="endpoint endpoint-broken" cx="262" cy="12" r="7"/><circle class="endpoint endpoint-broken" cx="285" cy="12" r="7"/><circle class="endpoint endpoint-broken" cx="78" cy="35" r="7"/><circle class="endpoint endpoint-broken" cx="101" cy="35" r="7"/><circle class="endpoint endpoint-broken" cx="124" cy="35" r="7"/><circle class="endpoint endpoint-broken" cx="147" cy="35" r="7"/><circle class="endpoint endpoint-broken" cx="170" cy="35" r="7"/><circle class="endpoint endpoint-required" cx="193" cy="35" r="7"/><circle class="endpoint endpoint-required" cx="216" cy="35" r="7"/><circle class="endpoint endpoint-required" cx="239" cy="35" r="7"/><circle class="endpoint endpoint-required" cx="262" cy="35" r="7"/><circle class="endpoint endpoint-required" cx="285" cy="35" r="7"/><circle class="endpoint endpoint-required" cx="78" cy="58" r="7"/><circle class="endpoint endpoint-required" cx="101" cy="58" r="7"/><circle class="endpoint endpoint-required" cx="124" cy="58" r="7"/><circle class="endpoint endpoint-required" cx="147" cy="58" r="7"/><circle class="endpoint endpoint-required" cx="170" cy="58" r="7"/><circle class="endpoint endpoint-required" cx="193" cy="58" r="7"/><circle class="endpoint endpoint-required" cx="216" cy="58" r="7"/><circle class="endpoint endpoint-required" cx="239" cy="58" r="7"/><circle class="endpoint endpoint-required" cx="262" cy="58" r="7"/><circle class="endpoint endpoint-required" cx="285" cy="58" r="7"/><circle class="endpoint endpoint-required" cx="78" cy="81" r="7"/><circle class="endpoint endpoint-required" cx="101" cy="81" r="7"/><circle class="endpoint endpoint-required" cx="124" cy="81" r="7"/><circle class="endpoint endpoint-required" cx="147" cy="81" r="7"/><circle class="endpoint endpoint-required" cx="170" cy="81" r="7"/><circle class="endpoint endpoint-required" cx="193" cy="81" r="7"/><circle class="endpoint endpoint-required" cx="216" cy="81" r="7"/><circle class="endpoint endpoint-required" cx="239" cy="81" r="7"/><circle class="endpoint endpoint-required" cx="262" cy="81" r="7"/><circle class="endpoint endpoint-required" cx="285" cy="81" r="7"/><circle class="endpoint endpoint-required" cx="78" cy="104" r="7"/><circle class="endpoint endpoint-required" cx="101" cy="104" r="7"/><circle class="endpoint endpoint-required" cx="124" cy="104" r="7"/><circle class="endpoint endpoint-paywalled" cx="147" cy="104" r="7"/><circle class="endpoint endpoint-optional" cx="170" cy="104" r="7"/><circle class="endpoint endpoint-optional" cx="193" cy="104" r="7"/><circle class="endpoint endpoint-optional" cx="216" cy="104" r="7"/><circle class="endpoint endpoint-optional" cx="239" cy="104" r="7"/><circle class="endpoint endpoint-optional" cx="262" cy="104" r="7"/><circle class="endpoint endpoint-optional" cx="285" cy="104" r="7"/><circle class="endpoint endpoint-optional" cx="78" cy="127" r="7"/><circle class="endpoint endpoint-optional" cx="101" cy="127" r="7"/><circle class="endpoint endpoint-optional" cx="124" cy="127" r="7"/><circle class="endpoint endpoint-optional" cx="147" cy="127" r="7"/><circle class="endpoint endpoint-optional" cx="170" cy="127" r="7"/><circle class="endpoint endpoint-optional" cx="193" cy="127" r="7"/><circle class="endpoint endpoint-optional" cx="216" cy="127" r="7"/><circle class="endpoint endpoint-optional" cx="239" cy="127" r="7"/><circle class="endpoint endpoint-optional" cx="262" cy="127" r="7"/><circle class="endpoint endpoint-optional" cx="285" cy="127" r="7"/><circle class="endpoint endpoint-optional" cx="78" cy="150" r="7"/><circle class="endpoint endpoint-optional" cx="101" cy="150" r="7"/><circle class="endpoint endpoint-optional" cx="124" cy="150" r="7"/><circle class="endpoint endpoint-optional" cx="147" cy="150" r="7"/><circle class="endpoint endpoint-optional" cx="170" cy="150" r="7"/><circle class="endpoint endpoint-optional" cx="193" cy="150" r="7"/><circle class="endpoint endpoint-optional" cx="216" cy="150" r="7"/><circle class="endpoint endpoint-open" cx="239" cy="150" r="7"/><circle class="endpoint endpoint-open" cx="262" cy="150" r="7"/><circle class="endpoint endpoint-open" cx="285" cy="150" r="7"/><circle class="endpoint endpoint-open" cx="78" cy="173" r="7"/><circle class="endpoint endpoint-open" cx="101" cy="173" r="7"/><circle class="endpoint endpoint-open" cx="124" cy="173" r="7"/><circle class="endpoint endpoint-open" cx="147" cy="173" r="7"/><circle class="endpoint endpoint-open" cx="170" cy="173" r="7"/><circle class="endpoint endpoint-open" cx="193" cy="173" r="7"/><circle class="endpoint endpoint-open" cx="216" cy="173" r="7"/><circle class="endpoint endpoint-open" cx="239" cy="173" r="7"/><circle class="endpoint endpoint-open" cx="262" cy="173" r="7"/><circle class="endpoint endpoint-open" cx="285" cy="173" r="7"/><circle class="endpoint endpoint-open" cx="78" cy="196" r="7"/><circle class="endpoint endpoint-open" cx="101" cy="196" r="7"/><circle class="endpoint endpoint-open" cx="124" cy="196" r="7"/><circle class="endpoint endpoint-open" cx="147" cy="196" r="7"/><circle class="endpoint endpoint-open" cx="170" cy="196" r="7"/><circle class="endpoint endpoint-open" cx="193" cy="196" r="7"/><circle class="endpoint endpoint-open" cx="216" cy="196" r="7"/><circle class="endpoint endpoint-open" cx="239" cy="196" r="7"/><circle class="endpoint endpoint-open" cx="262" cy="196" r="7"/><circle class="endpoint endpoint-open" cx="285" cy="196" r="7"/><circle class="endpoint endpoint-open" cx="78" cy="219" r="7"/><circle class="endpoint endpoint-open" cx="101" cy="219" r="7"/><circle class="endpoint endpoint-open" cx="124" cy="219" r="7"/><circle class="endpoint endpoint-open" cx="147" cy="219" r="7"/><circle class="endpoint endpoint-open" cx="170" cy="219" r="7"/><circle class="endpoint endpoint-open" cx="193" cy="219" r="7"/><circle class="endpoint endpoint-open" cx="216" cy="219" r="7"/><circle class="endpoint endpoint-open" cx="239" cy="219" r="7"/><circle class="endpoint endpoint-open" cx="262" cy="219" r="7"/><circle class="endpoint endpoint-partial" cx="285" cy="219" r="7"/></g></svg>