<svg viewBox="0 0 360 419" role="img" aria-label="Auth posture, by endpoint and by host" preserveAspectRatio="xMinYMin meet"><title>Auth posture, by endpoint and by host</title><desc>The two units disagree because a few operators register many endpoints.</desc><rect class="bar bar-1" x="0" y="2" width="10" height="10"/><text class="label-muted" x="16" y="11">endpoints</text><rect class="bar bar-2" x="122" y="2" width="10" height="10"/><text class="label-muted" x="138" y="11">hosts</text><g class="step"><text class="label" x="0" y="34">open</text><rect class="bar bar-1" x="0" y="43" width="292" height="12"/><text class="value" x="299" y="53">3,511</text><rect class="bar bar-2" x="0" y="59" width="266" height="12"/><text class="value" x="273" y="69">3,201</text></g><g class="step"><text class="label" x="0" y="89">required</text><rect class="bar bar-1" x="0" y="98" width="257" height="12"/><text class="value" x="264" y="108">3,092</text><rect class="bar bar-2" x="0" y="114" width="231" height="12"/><text class="value" x="238" y="124">2,783</text></g><g class="step"><text class="label" x="0" y="144">optional</text><rect class="bar bar-1" x="0" y="153" width="213" height="12"/><text class="value" x="220" y="163">2,566</text><rect class="bar bar-2" x="0" y="169" width="89" height="12"/><text class="value" x="96" y="179">1,065</text></g><g class="step"><text class="label" x="0" y="199">broken</text><rect class="bar bar-1" x="0" y="208" width="143" height="12"/><text class="value" x="150" y="218">1,718</text><rect class="bar bar-2" x="0" y="224" width="112" height="12"/><text class="value" x="119" y="234">1,344</text></g><g class="step"><text class="label" x="0" y="254">paywalled</text><rect class="bar bar-1" x="0" y="263" width="10" height="12"/><text class="value" x="17" y="273">118</text><rect class="bar bar-2" x="0" y="279" width="10" height="12"/><text class="value" x="17" y="289">117</text></g><g class="step"><text class="label" x="0" y="309">partial</text><rect class="bar bar-1" x="0" y="318" width="8" height="12"/><text class="value" x="15" y="328">92</text><rect class="bar bar-2" x="0" y="334" width="7" height="12"/><text class="value" x="14" y="344">85</text></g><g class="step"><text class="label" x="0" y="364">throttled</text><rect class="bar bar-1" x="0" y="373" width="2" height="12"/><text class="value" x="9" y="383">24</text><rect class="bar bar-2" x="0" y="389" width="2" height="12"/><text class="value" x="9" y="399">24</text></g></svg>