<svg viewBox="0 0 360 244" role="img" aria-label="What sits behind each posture" preserveAspectRatio="xMinYMin meet"><title>What sits behind each posture</title><desc>Servers by the highest-sensitivity capability inferred from their metadata. Required-auth servers never show a tool list, so their labels rest on name and description alone.</desc><rect class="bar bar-1" x="0" y="2" width="10" height="10"/><text class="label-muted" x="16" y="11">public</text><rect class="bar bar-2" x="180" y="2" width="10" height="10"/><text class="label-muted" x="196" y="11">user-private</text><rect class="bar bar-3" x="0" y="24" width="10" height="10"/><text class="label-muted" x="16" y="33">financial</text><rect class="bar bar-4" x="180" y="24" width="10" height="10"/><text class="label-muted" x="196" y="33">infrastructure-control</text><text class="label" x="0" y="64">required</text><text class="label-muted" x="352" y="64" text-anchor="end">2,976 servers</text><rect class="bar bar-1" x="0.0" y="74" width="145.0" height="34"/><text class="value" x="72.5" y="96" text-anchor="middle">41%</text><rect class="bar bar-2" x="145.0" y="74" width="135.5" height="34"/><text class="value" x="212.8" y="96" text-anchor="middle">39%</text><rect class="bar bar-3" x="280.6" y="74" width="18.7" height="34"/><rect class="bar bar-4" x="299.2" y="74" width="52.8" height="34"/><text class="value" x="325.6" y="96" text-anchor="middle">15%</text><text class="label" x="0" y="124">optional</text><text class="label-muted" x="352" y="124" text-anchor="end">2,561 servers</text><rect class="bar bar-1" x="0.0" y="134" width="273.8" height="34"/><text class="value" x="136.9" y="156" text-anchor="middle">78%</text><rect class="bar bar-2" x="273.8" y="134" width="55.3" height="34"/><text class="value" x="301.4" y="156" text-anchor="middle">16%</text><rect class="bar bar-3" x="329.0" y="134" width="12.5" height="34"/><rect class="bar bar-4" x="341.6" y="134" width="10.4" height="34"/><text class="label" x="0" y="184">open</text><text class="label-muted" x="352" y="184" text-anchor="end">3,490 servers</text><rect class="bar bar-1" x="0.0" y="194" width="256.7" height="34"/><text class="value" x="128.3" y="216" text-anchor="middle">73%</text><rect class="bar bar-2" x="256.7" y="194" width="47.2" height="34"/><text class="value" x="280.3" y="216" text-anchor="middle">13%</text><rect class="bar bar-3" x="303.9" y="194" width="34.8" height="34"/><rect class="bar bar-4" x="338.7" y="194" width="13.3" height="34"/></svg>